<svg xmlns="http://www.w3.org/2000/svg" width="80" height="113.838" viewBox="0 0 80 113.838">
  <g id="_1_dog" data-name="1 dog" transform="translate(6.542 10.371)">
    <g id="Group_49" data-name="Group 49">
      <path id="Path_10" data-name="Path 10" d="M4152.086,720.922a2.322,2.322,0,0,1-1.8-1.86,3.8,3.8,0,0,0-.2-.761h0a4.183,4.183,0,0,0-.2.767,2.328,2.328,0,0,1-1.805,1.86c-.228.049-.387.086-.387.086a4.221,4.221,0,0,0,.5.16,2.327,2.327,0,0,1,1.7,1.842,3.836,3.836,0,0,0,.19.712h0a3.878,3.878,0,0,0,.19-.712,2.328,2.328,0,0,1,1.7-1.842,3.933,3.933,0,0,0,.5-.16A2.453,2.453,0,0,0,4152.086,720.922Z" transform="translate(-4095.154 -682.649)" fill="none" stroke="#20152b" stroke-miterlimit="10" stroke-width="1"/>
      <g id="Group_47" data-name="Group 47" transform="translate(31.563 -9)">
        <line id="Line_37" data-name="Line 37" x2="0.921" y2="0.921" transform="translate(5.275 5.753)" fill="none" stroke="#20152b" stroke-miterlimit="10" stroke-width="1"/>
        <line id="Line_38" data-name="Line 38" x2="0.921" y2="0.921" transform="translate(0.916 1.387)" fill="none" stroke="#20152b" stroke-miterlimit="10" stroke-width="1"/>
        <line id="Line_39" data-name="Line 39" x1="0.921" y2="0.921" transform="translate(0.916 5.753)" fill="none" stroke="#20152b" stroke-miterlimit="10" stroke-width="1"/>
        <line id="Line_40" data-name="Line 40" x1="0.921" y2="0.921" transform="translate(5.275 1.387)" fill="none" stroke="#20152b" stroke-miterlimit="10" stroke-width="1"/>
        <path id="Path_11" data-name="Path 11" d="M4122.275,664.264s-.958-.221-1.854-.387a1.5,1.5,0,0,1-.706-.331,4.352,4.352,0,0,0,.479-.755h0a3.943,3.943,0,0,0-.743.467,1.578,1.578,0,0,1-.276-.731,1.195,1.195,0,1,0-.909.006,1.556,1.556,0,0,1-.307.774c-.344-.246-.713-.516-.713-.516a4.592,4.592,0,0,0,.492.749,1.533,1.533,0,0,1-.725.344c-.884.16-1.854.381-1.854.381a7.926,7.926,0,0,0,1.768.43,1.634,1.634,0,0,1,.762.325.435.435,0,1,0,.271.27,1.514,1.514,0,0,1,.313.78,9.4,9.4,0,0,0,.448,2.229,9.278,9.278,0,0,0,.448-2.229,1.559,1.559,0,0,1,.319-.792,4.4,4.4,0,0,0,.706.461s-.251-.344-.491-.682a1.562,1.562,0,0,1,.8-.362A8.277,8.277,0,0,0,4122.275,664.264Z" transform="translate(-4115.159 -660.23)" fill="none" stroke="#20152b" stroke-miterlimit="10" stroke-width="1"/>
      </g>
      <g id="Group_48" data-name="Group 48" transform="translate(0 23.876)">
        <line id="Line_41" data-name="Line 41" x2="0.921" y2="0.921" transform="translate(5.273 5.753)" fill="none" stroke="#20152b" stroke-miterlimit="10" stroke-width="1"/>
        <line id="Line_42" data-name="Line 42" x2="0.921" y2="0.921" transform="translate(0.915 1.394)" fill="none" stroke="#20152b" stroke-miterlimit="10" stroke-width="1"/>
        <line id="Line_43" data-name="Line 43" x1="0.921" y2="0.921" transform="translate(0.915 5.753)" fill="none" stroke="#20152b" stroke-miterlimit="10" stroke-width="1"/>
        <line id="Line_44" data-name="Line 44" x1="0.921" y2="0.921" transform="translate(5.273 1.394)" fill="none" stroke="#20152b" stroke-miterlimit="10" stroke-width="1"/>
        <path id="Path_12" data-name="Path 12" d="M4039.916,703.154s-.958-.221-1.854-.387a1.5,1.5,0,0,1-.706-.331,4.322,4.322,0,0,0,.479-.755h0a3.962,3.962,0,0,0-.743.467,1.572,1.572,0,0,1-.276-.731,1.194,1.194,0,1,0-.909.006,1.561,1.561,0,0,1-.307.774c-.344-.246-.712-.516-.712-.516a4.514,4.514,0,0,0,.491.749,1.529,1.529,0,0,1-.724.344c-.884.16-1.854.381-1.854.381a7.934,7.934,0,0,0,1.769.43,1.637,1.637,0,0,1,.761.325,4.207,4.207,0,0,0-.448.718,3.634,3.634,0,0,0,.712-.448,1.511,1.511,0,0,1,.313.78,9.379,9.379,0,0,0,.448,2.229,9.279,9.279,0,0,0,.448-2.229,1.564,1.564,0,0,1,.319-.792,4.393,4.393,0,0,0,.706.461s-.252-.344-.491-.682a1.558,1.558,0,0,1,.811-.362A8.275,8.275,0,0,0,4039.916,703.154Z" transform="translate(-4032.8 -699.12)" fill="none" stroke="#20152b" stroke-miterlimit="10" stroke-width="1"/>
      </g>
    </g>
    <text id="ADORABLE_DOG" data-name="ADORABLE
DOG" transform="translate(33.458 82.466)" fill="#20152b" font-size="15" font-family="Lato-Medium, Lato" font-weight="500"><tspan x="-39.735" y="0">ADORABLE</tspan><tspan x="-17.194" y="18">DOG</tspan></text>
    <text id="_1" data-name="1" transform="translate(28.221 38.592)" fill="#20152b" font-size="44" font-family="Montserrat-Bold, Montserrat" font-weight="700"><tspan x="0" y="0">1</tspan></text>
  </g>
</svg>
