<svg xmlns="http://www.w3.org/2000/svg" width="84" height="113.811" viewBox="0 0 84 113.811">
  <g id="_2_1" data-name="2 1" transform="translate(18.307)">
    <g id="Group_45" data-name="Group 45" transform="translate(0 0)">
      <path id="Path_6" data-name="Path 6" d="M3760.376,720.34a1.962,1.962,0,0,1-1.516-1.565,3.739,3.739,0,0,0-.166-.645h0a3.786,3.786,0,0,0-.166.645,1.962,1.962,0,0,1-1.522,1.565l-.326.074a4.23,4.23,0,0,0,.424.135,1.939,1.939,0,0,1,1.43,1.547,3.615,3.615,0,0,0,.16.6h0a3.236,3.236,0,0,0,.16-.6,1.955,1.955,0,0,1,1.437-1.547,3.113,3.113,0,0,0,.424-.135C3760.708,720.414,3760.572,720.383,3760.376,720.34Z" transform="translate(-3751.431 -672.238)" fill="none" stroke="#20152b" stroke-miterlimit="10" stroke-width="1"/>
      <path id="Path_7" data-name="Path 7" d="M3837.709,678.975a3.706,3.706,0,0,1-2.867-2.959,6.354,6.354,0,0,0-.319-1.216h0a6.318,6.318,0,0,0-.319,1.216,3.7,3.7,0,0,1-2.879,2.959l-.614.135a6.06,6.06,0,0,0,.8.252,3.692,3.692,0,0,1,2.708,2.928,6.705,6.705,0,0,0,.3,1.136h0a6.6,6.6,0,0,0,.3-1.136,3.7,3.7,0,0,1,2.707-2.928,6.355,6.355,0,0,0,.8-.252C3838.335,679.116,3838.084,679.055,3837.709,678.975Z" transform="translate(-3780.011 -655.51)" fill="none" stroke="#20152b" stroke-miterlimit="10" stroke-width="1"/>
      <g id="Group_39" data-name="Group 39" transform="translate(33.251)">
        <g id="Group_38" data-name="Group 38">
          <g id="Group_37" data-name="Group 37">
            <g id="Group_35" data-name="Group 35" transform="translate(0 2.37)">
              <line id="Line_29" data-name="Line 29" x2="1.934" fill="none" stroke="#20152b" stroke-miterlimit="10" stroke-width="1"/>
              <line id="Line_30" data-name="Line 30" x2="1.934" transform="translate(2.812)" fill="none" stroke="#20152b" stroke-miterlimit="10" stroke-width="1"/>
            </g>
            <g id="Group_36" data-name="Group 36" transform="translate(2.37)">
              <line id="Line_31" data-name="Line 31" y2="1.793" fill="none" stroke="#20152b" stroke-miterlimit="10" stroke-width="1"/>
              <line id="Line_32" data-name="Line 32" y2="1.799" transform="translate(0 2.941)" fill="none" stroke="#20152b" stroke-miterlimit="10" stroke-width="1"/>
            </g>
          </g>
        </g>
        <path id="Path_8" data-name="Path 8" d="M3805.4,645.03c0,1.283-.062,1.357-1.2,1.357,1.136,0,1.2.074,1.2,1.357,0-1.283.061-1.357,1.2-1.357C3805.465,646.387,3805.4,646.313,3805.4,645.03Z" transform="translate(-3803.028 -644.017)" fill="none" stroke="#20152b" stroke-miterlimit="10" stroke-width="1"/>
      </g>
      <g id="Group_44" data-name="Group 44" transform="translate(0 21.083)">
        <g id="Group_43" data-name="Group 43">
          <g id="Group_42" data-name="Group 42">
            <g id="Group_40" data-name="Group 40" transform="translate(0 4.144)">
              <line id="Line_33" data-name="Line 33" x2="3.377" fill="none" stroke="#20152b" stroke-miterlimit="10" stroke-width="1"/>
              <line id="Line_34" data-name="Line 34" x2="3.371" transform="translate(4.912)" fill="none" stroke="#20152b" stroke-miterlimit="10" stroke-width="1"/>
            </g>
            <g id="Group_41" data-name="Group 41" transform="translate(4.144)">
              <line id="Line_35" data-name="Line 35" y2="3.143" fill="none" stroke="#20152b" stroke-miterlimit="10" stroke-width="1"/>
              <line id="Line_36" data-name="Line 36" y2="3.137" transform="translate(0 5.145)" fill="none" stroke="#20152b" stroke-miterlimit="10" stroke-width="1"/>
            </g>
          </g>
        </g>
        <path id="Path_9" data-name="Path 9" d="M3753.564,680.61c0,2.247-.111,2.37-2.094,2.37,1.983,0,2.094.123,2.094,2.37,0-2.247.11-2.37,2.094-2.37C3753.674,682.98,3753.564,682.851,3753.564,680.61Z" transform="translate(-3749.42 -678.836)" fill="none" stroke="#20152b" stroke-miterlimit="10" stroke-width="1"/>
      </g>
    </g>
    <text id="_2" data-name="2" transform="translate(15.28 48.937)" fill="#20152b" font-size="44" font-family="Montserrat-Bold, Montserrat" font-weight="700"><tspan x="0" y="0">2</tspan></text>
    <text id="UPCOMING_TITLES" data-name="UPCOMING
TITLES" transform="translate(23.693 92.811)" fill="#20152b" font-size="15" font-family="Lato-Medium, Lato" font-weight="500"><tspan x="-41.317" y="0">UPCOMING</tspan><tspan x="-23.295" y="18">TITLES</tspan></text>
  </g>
</svg>
