<svg xmlns="http://www.w3.org/2000/svg" width="108.211" height="116.846" viewBox="0 0 108.211 116.846">
  <g id="_255_1" data-name="255 1" transform="translate(1.679 1.371)">
    <g id="Group_33" data-name="Group 33">
      <path id="Path_3" data-name="Path 3" d="M3573.08,719.362a2.322,2.322,0,0,1-1.8-1.86,4.268,4.268,0,0,0-.2-.761h0a4.164,4.164,0,0,0-.2.767,2.329,2.329,0,0,1-1.805,1.86c-.227.049-.386.086-.386.086a4.265,4.265,0,0,0,.5.16,2.328,2.328,0,0,1,1.7,1.842,3.82,3.82,0,0,0,.19.712h0a3.839,3.839,0,0,0,.19-.712,2.328,2.328,0,0,1,1.7-1.842,3.932,3.932,0,0,0,.5-.16A3.113,3.113,0,0,0,3573.08,719.362Z" transform="translate(-3467.446 -670.038)" fill="none" stroke="#20152b" stroke-miterlimit="10" stroke-width="1"/>
      <g id="Group_31" data-name="Group 31" transform="translate(81.261)">
        <line id="Line_21" data-name="Line 21" x2="0.921" y2="0.921" transform="translate(5.273 5.753)" fill="none" stroke="#20152b" stroke-miterlimit="10" stroke-width="1"/>
        <line id="Line_22" data-name="Line 22" x2="0.921" y2="0.915" transform="translate(0.914 1.394)" fill="none" stroke="#20152b" stroke-miterlimit="10" stroke-width="1"/>
        <line id="Line_23" data-name="Line 23" x1="0.921" y2="0.921" transform="translate(0.914 5.753)" fill="none" stroke="#20152b" stroke-miterlimit="10" stroke-width="1"/>
        <line id="Line_24" data-name="Line 24" x1="0.921" y2="0.915" transform="translate(5.273 1.394)" fill="none" stroke="#20152b" stroke-miterlimit="10" stroke-width="1"/>
        <path id="Path_4" data-name="Path 4" d="M3543.256,644.7s-.957-.221-1.854-.387a1.509,1.509,0,0,1-.706-.332,4.3,4.3,0,0,0,.479-.755h0a3.952,3.952,0,0,0-.743.467,1.581,1.581,0,0,1-.276-.731,1.195,1.195,0,1,0-.909.006,1.561,1.561,0,0,1-.307.774c-.344-.246-.712-.516-.712-.516a4.559,4.559,0,0,0,.491.749,1.528,1.528,0,0,1-.724.344c-.884.16-1.854.381-1.854.381a7.912,7.912,0,0,0,1.768.43,1.637,1.637,0,0,1,.761.326,3.861,3.861,0,0,0-.448.718,3.629,3.629,0,0,0,.712-.448,1.512,1.512,0,0,1,.313.78,9.416,9.416,0,0,0,.448,2.229,9.3,9.3,0,0,0,.448-2.229,1.561,1.561,0,0,1,.319-.792,4.406,4.406,0,0,0,.706.46s-.252-.344-.491-.681a1.558,1.558,0,0,1,.81-.362A8.261,8.261,0,0,0,3543.256,644.7Z" transform="translate(-3536.141 -640.67)" fill="none" stroke="#20152b" stroke-miterlimit="10" stroke-width="1"/>
      </g>
      <g id="Group_32" data-name="Group 32" transform="translate(0 23.876)">
        <line id="Line_25" data-name="Line 25" x2="0.921" y2="0.921" transform="translate(5.273 5.753)" fill="none" stroke="#20152b" stroke-miterlimit="10" stroke-width="1"/>
        <line id="Line_26" data-name="Line 26" x2="0.921" y2="0.921" transform="translate(0.914 1.394)" fill="none" stroke="#20152b" stroke-miterlimit="10" stroke-width="1"/>
        <line id="Line_27" data-name="Line 27" x1="0.921" y2="0.921" transform="translate(0.914 5.753)" fill="none" stroke="#20152b" stroke-miterlimit="10" stroke-width="1"/>
        <line id="Line_28" data-name="Line 28" x1="0.921" y2="0.921" transform="translate(5.273 1.394)" fill="none" stroke="#20152b" stroke-miterlimit="10" stroke-width="1"/>
        <path id="Path_5" data-name="Path 5" d="M3410.9,683.594s-.958-.221-1.854-.387a1.507,1.507,0,0,1-.706-.332,4.342,4.342,0,0,0,.479-.755h0a3.94,3.94,0,0,0-.743.467,1.575,1.575,0,0,1-.276-.731,1.195,1.195,0,1,0-.909.006,1.561,1.561,0,0,1-.307.774c-.344-.246-.712-.516-.712-.516a4.556,4.556,0,0,0,.491.749,1.53,1.53,0,0,1-.724.344c-.884.16-1.854.381-1.854.381a7.912,7.912,0,0,0,1.768.43,1.636,1.636,0,0,1,.761.325,3.833,3.833,0,0,0-.448.718,3.654,3.654,0,0,0,.712-.448,1.51,1.51,0,0,1,.313.78,9.417,9.417,0,0,0,.448,2.229,9.279,9.279,0,0,0,.448-2.229,1.562,1.562,0,0,1,.319-.792,4.411,4.411,0,0,0,.706.46s-.252-.344-.491-.681a1.557,1.557,0,0,1,.81-.362A8.272,8.272,0,0,0,3410.9,683.594Z" transform="translate(-3403.781 -679.56)" fill="none" stroke="#20152b" stroke-miterlimit="10" stroke-width="1"/>
      </g>
    </g>
    <text id="PROJECTS_BY_THE_TEAM" data-name="PROJECTS BY
  THE TEAM" transform="translate(6.684 94.475)" fill="#20152b" font-size="15" font-family="Lato-Medium, Lato" font-weight="500"><tspan x="0" y="0">PROJECTS BY</tspan><tspan x="0" y="18" xml:space="preserve">  THE TEAM</tspan></text>
    <text id="_225" data-name="225" transform="translate(13.109 52.601)" fill="#20152b" font-size="46" font-family="Montserrat-Bold, Montserrat" font-weight="700"><tspan x="0" y="0">225</tspan></text>
  </g>
</svg>
