<?xml version="1.0" encoding="utf-8"?>
<!-- Generator: Adobe Illustrator 24.0.1, SVG Export Plug-In . SVG Version: 6.00 Build 0)  -->
<svg version="1.1" id="Layer_1" xmlns="http://www.w3.org/2000/svg" xmlns:xlink="http://www.w3.org/1999/xlink" x="0px" y="0px"
	 viewBox="0 0 2000 2000" style="enable-background:new 0 0 2000 2000;" xml:space="preserve">
<style type="text/css">
	.st0{fill:#FFFFFF;}
	.st1{fill:none;}
</style>
<path class="st0" d="M1794.6,1544.2c0.5-0.6,0.9-1.2,1.4-1.8c0.2-0.3,0.4-0.5,0.6-0.8c0.4-0.6,0.8-1.2,1.2-1.7
	c0.2-0.3,0.4-0.6,0.6-1c0.3-0.6,0.7-1.1,1-1.7c0.2-0.4,0.4-0.7,0.6-1.1c0.3-0.5,0.6-1.1,0.9-1.7c0.2-0.4,0.4-0.8,0.6-1.1
	c0.3-0.5,0.5-1.1,0.8-1.7c0.2-0.4,0.4-0.8,0.5-1.2c0.2-0.6,0.5-1.1,0.7-1.7c0.2-0.4,0.3-0.8,0.5-1.2c0.2-0.6,0.4-1.2,0.6-1.8
	c0.1-0.4,0.3-0.8,0.4-1.2c0.2-0.6,0.4-1.2,0.5-1.8c0.1-0.4,0.2-0.8,0.3-1.2c0.2-0.6,0.3-1.2,0.4-1.8c0.1-0.4,0.2-0.8,0.3-1.3
	c0.1-0.6,0.2-1.2,0.3-1.8c0.1-0.5,0.2-0.9,0.2-1.4c0.1-0.6,0.2-1.1,0.2-1.7c0.1-0.5,0.1-1,0.2-1.5c0.1-0.5,0.1-1,0.2-1.6
	c0-0.6,0.1-1.1,0.1-1.7c0-0.5,0.1-1,0.1-1.5c0-0.6,0-1.2,0-1.7c0-0.3,0-0.6,0-0.9V495c0-0.4,0-0.7,0-1.1c0-0.5,0-0.9,0-1.4
	c0-0.6-0.1-1.2-0.1-1.8c0-0.5-0.1-0.9-0.1-1.4c-0.1-0.6-0.1-1.2-0.2-1.8c0-0.4-0.1-0.9-0.2-1.3c-0.1-0.6-0.2-1.3-0.3-1.9
	c-0.1-0.4-0.1-0.8-0.2-1.2c-0.1-0.6-0.2-1.3-0.4-1.9c-0.1-0.4-0.2-0.8-0.3-1.1c-0.2-0.6-0.3-1.3-0.5-1.9c-0.1-0.4-0.2-0.7-0.3-1.1
	c-0.2-0.6-0.4-1.2-0.6-1.9c-0.1-0.4-0.3-0.8-0.4-1.2c-0.2-0.6-0.4-1.2-0.6-1.8c-0.2-0.4-0.3-0.8-0.5-1.2c-0.2-0.6-0.4-1.1-0.7-1.7
	c-0.2-0.4-0.4-0.8-0.6-1.3c-0.2-0.5-0.5-1-0.7-1.6c-0.2-0.4-0.4-0.9-0.7-1.3c-0.3-0.5-0.5-1-0.8-1.5c-0.2-0.4-0.5-0.8-0.7-1.3
	c-0.3-0.5-0.6-1-0.9-1.5c-0.2-0.4-0.5-0.8-0.8-1.2c-0.3-0.5-0.7-1-1-1.5c-0.3-0.4-0.5-0.7-0.8-1.1c-0.4-0.5-0.7-1-1.1-1.5
	c-0.3-0.3-0.5-0.7-0.8-1c-0.4-0.5-0.8-1-1.2-1.4c-0.2-0.2-0.3-0.4-0.5-0.6c-0.1-0.1-0.3-0.3-0.4-0.4c-0.4-0.4-0.8-0.9-1.2-1.3
	c-0.3-0.4-0.7-0.7-1-1.1c-0.3-0.4-0.7-0.7-1.1-1c-0.4-0.4-0.9-0.8-1.3-1.2c-0.3-0.2-0.5-0.5-0.8-0.7c-0.5-0.5-1.1-0.9-1.6-1.4
	c-0.2-0.1-0.3-0.3-0.5-0.4c-0.7-0.5-1.3-1.1-2-1.6c-0.1,0-0.1-0.1-0.2-0.1c-2.4-1.8-5-3.4-7.6-4.9c-0.1,0-0.1-0.1-0.2-0.1
	c-0.8-0.4-1.7-0.9-2.5-1.3c-0.3-0.2-0.7-0.3-1-0.5c-0.6-0.3-1.2-0.5-1.8-0.8c-0.6-0.3-1.3-0.5-1.9-0.8c-0.3-0.1-0.6-0.3-0.9-0.4
	c-0.8-0.3-1.6-0.6-2.4-0.8c-0.2-0.1-0.3-0.1-0.5-0.2c-0.8-0.3-1.7-0.5-2.5-0.7c-0.2,0-0.3-0.1-0.5-0.1c-0.8-0.2-1.6-0.4-2.3-0.6
	c-0.2-0.1-0.5-0.1-0.7-0.2c-0.7-0.1-1.4-0.3-2.1-0.4c-0.4-0.1-0.7-0.1-1.1-0.2c-0.6-0.1-1.1-0.2-1.7-0.2c-0.5-0.1-1-0.1-1.5-0.2
	c-0.5-0.1-0.9-0.1-1.4-0.1c-0.6-0.1-1.2-0.1-1.9-0.1c-0.4,0-0.7,0-1.1,0c-0.7,0-1.4-0.1-2.2-0.1c-0.1,0-0.3,0-0.4,0H256
	c-0.2,0-0.4,0-0.7,0c-0.6,0-1.1,0-1.7,0c-0.5,0-1.1,0-1.6,0.1c-0.5,0-0.9,0.1-1.4,0.1c-0.6,0.1-1.3,0.1-1.9,0.2
	c-0.3,0-0.7,0.1-1,0.1c-0.7,0.1-1.5,0.2-2.2,0.3c-0.2,0-0.4,0.1-0.6,0.1c-0.9,0.1-1.7,0.3-2.5,0.5c-0.1,0-0.1,0-0.2,0.1
	c-3,0.6-5.9,1.5-8.7,2.5c-0.1,0-0.2,0.1-0.2,0.1c-0.9,0.3-1.7,0.7-2.6,1c-0.3,0.1-0.5,0.2-0.8,0.3c-0.7,0.3-1.3,0.6-2,0.9
	c-0.4,0.2-0.9,0.4-1.3,0.7c-0.5,0.2-0.9,0.5-1.4,0.7c-0.6,0.3-1.1,0.6-1.7,1c-0.3,0.2-0.7,0.4-1,0.6c-0.6,0.4-1.2,0.8-1.8,1.1
	c-0.3,0.2-0.5,0.3-0.8,0.5c-0.6,0.4-1.1,0.8-1.7,1.2c-0.3,0.2-0.6,0.4-0.8,0.6c-0.5,0.4-1,0.8-1.5,1.2c-0.3,0.3-0.7,0.5-1,0.8
	c-0.4,0.4-0.8,0.7-1.3,1.1c-0.4,0.3-0.8,0.7-1.2,1c-0.3,0.3-0.7,0.6-1,1c-0.5,0.4-0.9,0.9-1.3,1.3c-0.3,0.3-0.5,0.6-0.8,0.8
	c-0.5,0.5-1,1-1.4,1.6c-0.1,0.1-0.2,0.2-0.3,0.3c-0.1,0.1-0.2,0.3-0.4,0.4c-0.5,0.6-1,1.1-1.4,1.7c-0.2,0.3-0.4,0.5-0.6,0.8
	c-0.4,0.6-0.9,1.1-1.3,1.7c-0.2,0.3-0.4,0.6-0.6,0.9c-0.4,0.6-0.8,1.1-1.1,1.7c-0.2,0.3-0.4,0.7-0.7,1c-0.3,0.5-0.7,1.1-1,1.6
	c-0.2,0.4-0.4,0.7-0.6,1.1c-0.3,0.5-0.6,1.1-0.8,1.6c-0.2,0.4-0.4,0.8-0.6,1.2c-0.3,0.5-0.5,1.1-0.8,1.6c-0.2,0.4-0.4,0.8-0.6,1.2
	c-0.2,0.5-0.5,1.1-0.7,1.6c-0.2,0.4-0.3,0.8-0.5,1.3c-0.2,0.6-0.4,1.1-0.6,1.7c-0.1,0.4-0.3,0.8-0.4,1.3c-0.2,0.6-0.4,1.1-0.5,1.7
	c-0.1,0.4-0.2,0.8-0.4,1.3c-0.2,0.6-0.3,1.1-0.4,1.7c-0.1,0.4-0.2,0.9-0.3,1.3c-0.1,0.6-0.2,1.1-0.3,1.7c-0.1,0.5-0.2,1-0.3,1.4
	c-0.1,0.5-0.2,1.1-0.2,1.6c-0.1,0.5-0.1,1-0.2,1.6c-0.1,0.5-0.1,1-0.1,1.5c-0.1,0.6-0.1,1.1-0.1,1.7c0,0.5-0.1,0.9-0.1,1.4
	c0,0.6,0,1.2,0,1.8c0,0.3,0,0.5,0,0.8V1505c0,0.3,0,0.5,0,0.8c0,0.6,0,1.2,0,1.8c0,0.5,0,1,0.1,1.4c0,0.6,0.1,1.1,0.1,1.7
	c0,0.5,0.1,1,0.1,1.5c0.1,0.5,0.1,1,0.2,1.5c0.1,0.5,0.2,1.1,0.2,1.6c0.1,0.5,0.2,0.9,0.3,1.4c0.1,0.6,0.2,1.1,0.3,1.7
	c0.1,0.4,0.2,0.9,0.3,1.3c0.1,0.6,0.3,1.2,0.4,1.8c0.1,0.4,0.2,0.8,0.3,1.2c0.2,0.6,0.3,1.2,0.5,1.8c0.1,0.4,0.3,0.8,0.4,1.2
	c0.2,0.6,0.4,1.2,0.6,1.7c0.2,0.4,0.3,0.8,0.5,1.2c0.2,0.6,0.4,1.1,0.7,1.7c0.2,0.4,0.4,0.8,0.6,1.2c0.2,0.5,0.5,1.1,0.8,1.6
	c0.2,0.4,0.4,0.8,0.6,1.2c0.3,0.5,0.6,1.1,0.9,1.6c0.2,0.4,0.4,0.7,0.6,1.1c0.3,0.5,0.6,1.1,1,1.6c0.2,0.3,0.4,0.7,0.6,1
	c0.4,0.6,0.7,1.1,1.1,1.7c0.2,0.3,0.4,0.6,0.6,0.9c0.4,0.6,0.8,1.2,1.3,1.7c0.2,0.3,0.4,0.5,0.6,0.8c0.5,0.6,0.9,1.2,1.4,1.7
	c0.1,0.1,0.2,0.3,0.4,0.4c0.1,0.1,0.2,0.2,0.3,0.3c0.5,0.6,1.1,1.2,1.7,1.8c0.2,0.3,0.5,0.5,0.7,0.8c0.5,0.5,1.1,1.1,1.6,1.6
	c0.3,0.3,0.6,0.5,0.8,0.8c0.5,0.5,1.1,0.9,1.6,1.4c0.8,0.7,1.6,1.3,2.4,2c0.3,0.2,0.6,0.5,0.9,0.7c0.5,0.4,1.1,0.8,1.6,1.2
	c0.3,0.2,0.7,0.5,1,0.7c0.5,0.4,1.1,0.7,1.6,1c0.4,0.2,0.8,0.5,1.2,0.7c0.5,0.3,1,0.6,1.5,0.9c0.5,0.3,0.9,0.5,1.4,0.8
	c0.5,0.2,0.9,0.5,1.4,0.7c0.6,0.3,1.1,0.5,1.7,0.8c0.4,0.2,0.8,0.4,1.2,0.5c0.7,0.3,1.4,0.6,2.1,0.9c0.3,0.1,0.6,0.2,0.9,0.3
	c0.8,0.3,1.7,0.6,2.5,0.9c0.2,0.1,0.3,0.1,0.5,0.2c1,0.3,2,0.6,3,0.9c0,0,0.1,0,0.1,0c5.3,1.4,10.8,2.2,16.5,2.2h1488
	c5.7,0,11.2-0.8,16.5-2.2c0,0,0.1,0,0.1,0c1-0.3,2-0.6,3-0.9c0.2-0.1,0.4-0.1,0.6-0.2c0.8-0.3,1.7-0.6,2.5-0.9
	c0.3-0.1,0.6-0.2,0.9-0.4c0.7-0.3,1.4-0.5,2-0.8c0.4-0.2,0.8-0.4,1.2-0.5c0.6-0.3,1.1-0.5,1.7-0.8c0.5-0.2,0.9-0.5,1.4-0.7
	c0.5-0.2,0.9-0.5,1.4-0.7c0.5-0.3,1-0.6,1.5-0.9c0.4-0.2,0.8-0.5,1.2-0.7c0.5-0.3,1.1-0.7,1.6-1c0.4-0.2,0.7-0.5,1.1-0.7
	c0.5-0.4,1.1-0.7,1.6-1.1c0.4-0.3,0.7-0.6,1.1-0.9c0.5-0.4,1-0.7,1.4-1.1c0.8-0.7,1.6-1.4,2.4-2.1c0.2-0.2,0.4-0.4,0.6-0.6
	c0.6-0.6,1.3-1.2,1.9-1.8c0.2-0.2,0.4-0.4,0.6-0.6c0.6-0.6,1.2-1.3,1.8-2c0.1-0.1,0.1-0.2,0.2-0.2c0.1-0.1,0.2-0.3,0.3-0.4
	c0.5-0.6,1-1.2,1.5-1.8C1794.2,1544.6,1794.4,1544.4,1794.6,1544.2z M320,635.6L738.6,1000L320,1364.4V635.6z M1125.2,950.9
	c-0.2,0.2-0.4,0.4-0.6,0.5l-123.1,107.6l-124-108c0,0,0,0-0.1,0L427,559h1146.5L1125.2,950.9z M836.1,1084.8l123.5,107.5
	c12.1,10.5,27,15.7,42,15.7c15,0,30.1-5.3,42.1-15.8l122.7-107.2l407.2,356H427L836.1,1084.8z M1263.6,1000L1680,636v728
	L1263.6,1000z"/>
<rect class="st1" width="2000" height="2000"/>
</svg>
