<?xml version="1.0" encoding="utf-8"?>
<!-- Generator: Adobe Illustrator 24.0.1, SVG Export Plug-In . SVG Version: 6.00 Build 0)  -->
<svg version="1.1" id="Layer_1" xmlns="http://www.w3.org/2000/svg" xmlns:xlink="http://www.w3.org/1999/xlink" x="0px" y="0px"
	 viewBox="0 0 2000 2000" style="enable-background:new 0 0 2000 2000;" xml:space="preserve">
<style type="text/css">
	.st0{fill:#FFFFFF;}
	.st1{fill:none;}
</style>
<rect y="-9.21" width="2000" height="2009.21"/>
<g>
	<g>
		<path class="st0" d="M1744,1568.97H256c-35.35,0-64-28.65-64-64V495.03c0-35.35,28.65-64,64-64h1488c35.35,0,64,28.65,64,64
			v1009.94C1808,1540.32,1779.35,1568.97,1744,1568.97z M320,1440.97h1360V559.03H320V1440.97z"/>
	</g>
	<g>
		<path class="st0" d="M1001.58,1208.05c-14.99,0-29.97-5.24-42.02-15.73L213.98,543.3c-26.66-23.21-29.46-63.63-6.25-90.29
			c23.21-26.66,63.63-29.46,90.29-6.25l703.47,612.36l700.38-612.28c26.61-23.26,67.04-20.55,90.31,6.06
			c23.26,26.61,20.55,67.04-6.06,90.31l-742.42,649.02C1031.65,1202.78,1016.61,1208.05,1001.58,1208.05z"/>
	</g>
	<g>
		<path class="st0" d="M256.03,1568.97c-17.87,0-35.65-7.44-48.3-21.98c-23.21-26.66-20.41-67.09,6.25-90.29l580.1-504.97
			c26.66-23.21,67.08-20.41,90.29,6.25c23.21,26.66,20.41,67.09-6.25,90.29l-580.1,504.97
			C285.9,1563.79,270.93,1568.97,256.03,1568.97z"/>
	</g>
	<g>
		<path class="st0" d="M1743.97,1568.97c-14.95,0-29.96-5.21-42.1-15.82l-577.64-504.97c-26.61-23.26-29.33-63.7-6.06-90.31
			c23.26-26.61,63.69-29.33,90.31-6.06l577.64,504.97c26.61,23.26,29.33,63.7,6.06,90.31
			C1779.53,1561.57,1761.8,1568.97,1743.97,1568.97z"/>
	</g>
</g>
<rect class="st1" width="2000" height="2000"/>
</svg>
