<svg xmlns="http://www.w3.org/2000/svg" width="25.74" height="25.74" viewBox="0 0 25.74 25.74">
  <g id="Group_134" data-name="Group 134" transform="translate(42)">
    <g id="Component_7_1" data-name="Component 7 – 1" transform="translate(-42)">
      <g id="Group_126" data-name="Group 126">
        <circle id="Ellipse_7" data-name="Ellipse 7" cx="1.82" cy="1.82" r="1.82" transform="translate(17.78 4.33)" fill="#575757"/>
        <g id="Group_124" data-name="Group 124">
          <path id="Path_47" data-name="Path 47" d="M12.87,6.15a6.73,6.73,0,1,0,6.73,6.73A6.732,6.732,0,0,0,12.87,6.15Zm0,11a4.28,4.28,0,1,1,4.28-4.28A4.285,4.285,0,0,1,12.87,17.15Z" fill="#575757"/>
        </g>
        <g id="Group_125" data-name="Group 125">
          <path id="Path_48" data-name="Path 48" d="M18.34,0H7.4A7.4,7.4,0,0,0,0,7.4V18.34a7.4,7.4,0,0,0,7.4,7.4H18.34a7.4,7.4,0,0,0,7.4-7.4V7.4A7.4,7.4,0,0,0,18.34,0Zm4.91,18.39a4.865,4.865,0,0,1-4.86,4.86H7.35a4.865,4.865,0,0,1-4.86-4.86V7.35A4.865,4.865,0,0,1,7.35,2.49H18.39a4.865,4.865,0,0,1,4.86,4.86Z" fill="#575757"/>
        </g>
      </g>
    </g>
  </g>
</svg>
