<svg xmlns="http://www.w3.org/2000/svg" width="174.881" height="155.018" viewBox="0 0 174.881 155.018">
  <g id="Group_33" data-name="Group 33" transform="translate(-3402.101 -639.299)">
    <path id="Path_3" data-name="Path 3" d="M3575.84,721.01a3.781,3.781,0,0,1-2.93-3.03,6.956,6.956,0,0,0-.32-1.24h0a6.836,6.836,0,0,0-.33,1.25,3.793,3.793,0,0,1-2.94,3.03c-.37.08-.63.14-.63.14a6.968,6.968,0,0,0,.81.26,3.79,3.79,0,0,1,2.77,3,6.253,6.253,0,0,0,.31,1.16h0a6.273,6.273,0,0,0,.31-1.16,3.79,3.79,0,0,1,2.77-3,6.393,6.393,0,0,0,.81-.26A5.026,5.026,0,0,0,3575.84,721.01Z" fill="none" stroke="#20152b" stroke-miterlimit="10" stroke-width="1"/>
    <g id="Group_31" data-name="Group 31">
      <line id="Line_21" data-name="Line 21" x2="1.5" y2="1.5" transform="translate(3544.73 650.04)" fill="none" stroke="#20152b" stroke-miterlimit="10" stroke-width="1"/>
      <line id="Line_22" data-name="Line 22" x2="1.5" y2="1.49" transform="translate(3537.63 642.94)" fill="none" stroke="#20152b" stroke-miterlimit="10" stroke-width="1"/>
      <line id="Line_23" data-name="Line 23" x1="1.5" y2="1.5" transform="translate(3537.63 650.04)" fill="none" stroke="#20152b" stroke-miterlimit="10" stroke-width="1"/>
      <line id="Line_24" data-name="Line 24" x1="1.5" y2="1.49" transform="translate(3544.73 642.94)" fill="none" stroke="#20152b" stroke-miterlimit="10" stroke-width="1"/>
      <path id="Path_4" data-name="Path 4" d="M3547.73,647.24s-1.56-.36-3.02-.63a2.454,2.454,0,0,1-1.15-.54,7.06,7.06,0,0,0,.78-1.23h0a6.425,6.425,0,0,0-1.21.76,2.572,2.572,0,0,1-.45-1.19,1.946,1.946,0,1,0-1.48.01,2.545,2.545,0,0,1-.5,1.26c-.56-.4-1.16-.84-1.16-.84a7.4,7.4,0,0,0,.8,1.22,2.493,2.493,0,0,1-1.18.56c-1.44.26-3.02.62-3.02.62a12.9,12.9,0,0,0,2.88.7,2.666,2.666,0,0,1,1.24.53,6.274,6.274,0,0,0-.73,1.17,5.919,5.919,0,0,0,1.16-.73,2.466,2.466,0,0,1,.51,1.27,15.328,15.328,0,0,0,.73,3.63,15.111,15.111,0,0,0,.73-3.63,2.546,2.546,0,0,1,.52-1.29,7.168,7.168,0,0,0,1.15.75s-.41-.56-.8-1.11a2.538,2.538,0,0,1,1.32-.59A13.474,13.474,0,0,0,3547.73,647.24Z" fill="none" stroke="#20152b" stroke-miterlimit="10" stroke-width="1"/>
    </g>
    <g id="Group_32" data-name="Group 32">
      <line id="Line_25" data-name="Line 25" x2="1.5" y2="1.5" transform="translate(3412.37 688.93)" fill="none" stroke="#20152b" stroke-miterlimit="10" stroke-width="1"/>
      <line id="Line_26" data-name="Line 26" x2="1.5" y2="1.5" transform="translate(3405.27 681.83)" fill="none" stroke="#20152b" stroke-miterlimit="10" stroke-width="1"/>
      <line id="Line_27" data-name="Line 27" x1="1.5" y2="1.5" transform="translate(3405.27 688.93)" fill="none" stroke="#20152b" stroke-miterlimit="10" stroke-width="1"/>
      <line id="Line_28" data-name="Line 28" x1="1.5" y2="1.5" transform="translate(3412.37 681.83)" fill="none" stroke="#20152b" stroke-miterlimit="10" stroke-width="1"/>
      <path id="Path_5" data-name="Path 5" d="M3415.37,686.13s-1.56-.36-3.02-.63a2.454,2.454,0,0,1-1.15-.54,7.06,7.06,0,0,0,.78-1.23h0a6.425,6.425,0,0,0-1.21.76,2.572,2.572,0,0,1-.45-1.19,1.946,1.946,0,1,0-1.48.01,2.545,2.545,0,0,1-.5,1.26c-.56-.4-1.16-.84-1.16-.84a7.4,7.4,0,0,0,.8,1.22,2.493,2.493,0,0,1-1.18.56c-1.44.26-3.02.62-3.02.62a12.9,12.9,0,0,0,2.88.7,2.666,2.666,0,0,1,1.24.53,6.274,6.274,0,0,0-.73,1.17,5.919,5.919,0,0,0,1.16-.73,2.466,2.466,0,0,1,.51,1.27,15.328,15.328,0,0,0,.73,3.63,15.111,15.111,0,0,0,.73-3.63,2.546,2.546,0,0,1,.52-1.29,7.168,7.168,0,0,0,1.15.75s-.41-.56-.8-1.11a2.538,2.538,0,0,1,1.32-.59A13.484,13.484,0,0,0,3415.37,686.13Z" fill="none" stroke="#20152b" stroke-miterlimit="10" stroke-width="1"/>
    </g>
    <text id="_225" data-name="225" transform="translate(3425.132 728.05)" fill="#20152b" font-size="77" font-family="Montserrat-Bold, Montserrat" font-weight="700"><tspan x="0" y="0">225</tspan></text>
    <text id="PROJECTS_BY_THE_TEAM" data-name="PROJECTS BY
  THE TEAM" transform="translate(3429.327 766.317)" fill="#20152b" font-size="19.443" font-family="Lato-Bold, Lato" font-weight="700"><tspan x="0" y="0">PROJECTS BY</tspan><tspan x="0" y="23.33" xml:space="preserve">  THE TEAM</tspan></text>
  </g>
</svg>
