<svg xmlns="http://www.w3.org/2000/svg" width="153" height="117.267" viewBox="0 0 153 117.267">
  <g id="Group_50" data-name="Group 50" transform="translate(-4026.638 -653.05)">
    <g id="Group_49" data-name="Group 49">
      <path id="Path_10" data-name="Path 10" d="M4154.85,722.57a3.781,3.781,0,0,1-2.93-3.03,6.168,6.168,0,0,0-.33-1.24h0a6.8,6.8,0,0,0-.33,1.25,3.793,3.793,0,0,1-2.94,3.03c-.37.08-.63.14-.63.14a6.939,6.939,0,0,0,.81.26,3.79,3.79,0,0,1,2.77,3,6.272,6.272,0,0,0,.31,1.16h0a6.273,6.273,0,0,0,.31-1.16,3.79,3.79,0,0,1,2.77-3,6.406,6.406,0,0,0,.81-.26A4.044,4.044,0,0,0,4154.85,722.57Z" fill="none" stroke="#20152b" stroke-miterlimit="10" stroke-width="1"/>
      <g id="Group_47" data-name="Group 47">
        <line id="Line_37" data-name="Line 37" x2="1.5" y2="1.5" transform="translate(4123.75 669.6)" fill="none" stroke="#20152b" stroke-miterlimit="10" stroke-width="1"/>
        <line id="Line_38" data-name="Line 38" x2="1.5" y2="1.5" transform="translate(4116.65 662.49)" fill="none" stroke="#20152b" stroke-miterlimit="10" stroke-width="1"/>
        <line id="Line_39" data-name="Line 39" x1="1.5" y2="1.5" transform="translate(4116.65 669.6)" fill="none" stroke="#20152b" stroke-miterlimit="10" stroke-width="1"/>
        <line id="Line_40" data-name="Line 40" x1="1.5" y2="1.5" transform="translate(4123.75 662.49)" fill="none" stroke="#20152b" stroke-miterlimit="10" stroke-width="1"/>
        <path id="Path_11" data-name="Path 11" d="M4126.75,666.8s-1.56-.36-3.02-.63a2.454,2.454,0,0,1-1.15-.54,7.072,7.072,0,0,0,.78-1.23h0a6.433,6.433,0,0,0-1.21.76,2.572,2.572,0,0,1-.45-1.19,1.946,1.946,0,1,0-1.48.01,2.543,2.543,0,0,1-.5,1.26c-.56-.4-1.16-.84-1.16-.84a7.429,7.429,0,0,0,.8,1.22,2.493,2.493,0,0,1-1.18.56c-1.44.26-3.02.62-3.02.62a12.9,12.9,0,0,0,2.88.7,2.666,2.666,0,0,1,1.24.53,6.287,6.287,0,0,0-.73,1.17,6.276,6.276,0,0,0,1.17-.73,2.466,2.466,0,0,1,.51,1.27,15.316,15.316,0,0,0,.73,3.63,15.111,15.111,0,0,0,.73-3.63,2.546,2.546,0,0,1,.52-1.29,7.157,7.157,0,0,0,1.15.75s-.41-.56-.8-1.11a2.541,2.541,0,0,1,1.31-.59A13.465,13.465,0,0,0,4126.75,666.8Z" fill="none" stroke="#20152b" stroke-miterlimit="10" stroke-width="1"/>
      </g>
      <g id="Group_48" data-name="Group 48">
        <line id="Line_41" data-name="Line 41" x2="1.5" y2="1.5" transform="translate(4041.39 708.49)" fill="none" stroke="#20152b" stroke-miterlimit="10" stroke-width="1"/>
        <line id="Line_42" data-name="Line 42" x2="1.5" y2="1.5" transform="translate(4034.29 701.39)" fill="none" stroke="#20152b" stroke-miterlimit="10" stroke-width="1"/>
        <line id="Line_43" data-name="Line 43" x1="1.5" y2="1.5" transform="translate(4034.29 708.49)" fill="none" stroke="#20152b" stroke-miterlimit="10" stroke-width="1"/>
        <line id="Line_44" data-name="Line 44" x1="1.5" y2="1.5" transform="translate(4041.39 701.39)" fill="none" stroke="#20152b" stroke-miterlimit="10" stroke-width="1"/>
        <path id="Path_12" data-name="Path 12" d="M4044.39,705.69s-1.56-.36-3.02-.63a2.454,2.454,0,0,1-1.15-.54,7.06,7.06,0,0,0,.78-1.23h0a6.425,6.425,0,0,0-1.21.76,2.572,2.572,0,0,1-.45-1.19,1.946,1.946,0,1,0-1.48.01,2.545,2.545,0,0,1-.5,1.26c-.56-.4-1.16-.84-1.16-.84a7.4,7.4,0,0,0,.8,1.22,2.493,2.493,0,0,1-1.18.56c-1.44.26-3.02.62-3.02.62a12.9,12.9,0,0,0,2.88.7,2.666,2.666,0,0,1,1.24.53,6.85,6.85,0,0,0-.73,1.17,5.919,5.919,0,0,0,1.16-.73,2.466,2.466,0,0,1,.51,1.27,15.328,15.328,0,0,0,.73,3.63,15.111,15.111,0,0,0,.73-3.63,2.546,2.546,0,0,1,.52-1.29,7.168,7.168,0,0,0,1.15.75s-.41-.56-.8-1.11a2.538,2.538,0,0,1,1.32-.59A13.474,13.474,0,0,0,4044.39,705.69Z" fill="none" stroke="#20152b" stroke-miterlimit="10" stroke-width="1"/>
      </g>
    </g>
    <text id="_1" data-name="1" transform="translate(4078.768 728.05)" fill="#20152b" font-size="77" font-family="Montserrat-Bold, Montserrat" font-weight="700"><tspan x="0" y="0">1</tspan></text>
    <text id="ADORABLE_DOG" data-name="ADORABLE DOG" transform="translate(4026.638 766.317)" fill="#20152b" font-size="19.443" font-family="Lato-Bold, Lato" font-weight="700"><tspan x="0" y="0">ADORABLE DOG</tspan></text>
  </g>
</svg>
