<svg xmlns="http://www.w3.org/2000/svg" width="106.64" height="232.75" viewBox="0 0 106.64 232.75">
  <g id="Group_30" data-name="Group 30" transform="translate(-3742.38 -348)">
    <path id="Line_1" data-name="Line 1" d="M.5,71.75h-1V0h1Z" transform="translate(3795.34 348)" fill="#20152b"/>
    <path id="Line_2" data-name="Line 2" d="M.5,71.75h-1V0h1Z" transform="translate(3795.34 509)" fill="#20152b"/>
    <g id="Group_28" data-name="Group 28">
      <g id="Group_18" data-name="Group 18">
        <g id="Group_17" data-name="Group 17">
          <path id="Line_3" data-name="Line 3" d="M17.13.5H0A.5.5,0,0,1-.5,0,.5.5,0,0,1,0-.5H17.13a.5.5,0,0,1,.5.5A.5.5,0,0,1,17.13.5Z" transform="translate(3742.88 463.82)" fill="#1f0e2f"/>
          <path id="Line_4" data-name="Line 4" d="M17.13.5H0A.5.5,0,0,1-.5,0,.5.5,0,0,1,0-.5H17.13a.5.5,0,0,1,.5.5A.5.5,0,0,1,17.13.5Z" transform="translate(3831.39 463.82)" fill="#1f0e2f"/>
        </g>
      </g>
      <g id="Group_21" data-name="Group 21">
        <g id="Group_19" data-name="Group 19">
          <path id="Line_5" data-name="Line 5" d="M8.85,9.35A.5.5,0,0,1,8.5,9.2L-.354.354a.5.5,0,0,1,0-.707.5.5,0,0,1,.707,0L9.2,8.5a.5.5,0,0,1-.354.854Z" transform="translate(3767.53 435.65)" fill="#1f0e2f"/>
          <path id="Line_6" data-name="Line 6" d="M3.92,4.41a.5.5,0,0,1-.353-.146L-.353.354a.5.5,0,0,1,0-.707.5.5,0,0,1,.707,0l3.92,3.91a.5.5,0,0,1-.353.854Z" transform="translate(3760.77 428.89)" fill="#1f0e2f"/>
          <path id="Line_7" data-name="Line 7" d="M8.85,9.35A.5.5,0,0,1,8.5,9.2L-.354.354a.5.5,0,0,1,0-.707.5.5,0,0,1,.707,0L9.2,8.5a.5.5,0,0,1-.354.854Z" transform="translate(3815.08 483.2)" fill="#1f0e2f"/>
          <path id="Line_8" data-name="Line 8" d="M3.92,4.42a.5.5,0,0,1-.354-.146L-.354.354a.5.5,0,0,1,0-.707.5.5,0,0,1,.707,0l3.92,3.92a.5.5,0,0,1-.354.854Z" transform="translate(3826.77 494.89)" fill="#1f0e2f"/>
        </g>
        <g id="Group_20" data-name="Group 20">
          <path id="Line_9" data-name="Line 9" d="M0,9.78a.5.5,0,0,1-.353-.146.5.5,0,0,1,0-.707l9.27-9.28a.5.5,0,0,1,.707,0,.5.5,0,0,1,0,.707L.354,9.633A.5.5,0,0,1,0,9.78Z" transform="translate(3767.11 483.14)" fill="#1f0e2f"/>
        </g>
        <path id="Line_10" data-name="Line 10" d="M0,9.35A.5.5,0,0,1-.354,9.2a.5.5,0,0,1,0-.707L8.5-.354a.5.5,0,0,1,.707,0,.5.5,0,0,1,0,.707L.354,9.2A.5.5,0,0,1,0,9.35Z" transform="translate(3815.08 435.65)" fill="#1f0e2f"/>
        <path id="Line_11" data-name="Line 11" d="M0,4.41a.5.5,0,0,1-.354-.147.5.5,0,0,1,0-.707l3.92-3.91a.5.5,0,0,1,.707,0,.5.5,0,0,1,0,.707L.353,4.264A.5.5,0,0,1,0,4.41Z" transform="translate(3826.77 428.89)" fill="#1f0e2f"/>
        <path id="Line_12" data-name="Line 12" d="M0,4.42a.5.5,0,0,1-.354-.146.5.5,0,0,1,0-.707l3.92-3.92a.5.5,0,0,1,.707,0,.5.5,0,0,1,0,.707L.354,4.274A.5.5,0,0,1,0,4.42Z" transform="translate(3760.77 494.89)" fill="#1f0e2f"/>
      </g>
      <g id="Group_24" data-name="Group 24">
        <g id="Group_22" data-name="Group 22">
          <path id="Line_13" data-name="Line 13" d="M12.07,5.64a.5.5,0,0,1-.2-.04L-.2.46A.5.5,0,0,1-.46-.2.5.5,0,0,1,.2-.46l12.07,5.14a.5.5,0,0,1-.2.96Z" transform="translate(3758.5 447.97)" fill="#1f0e2f"/>
          <path id="Line_14" data-name="Line 14" d="M12.07,5.64a.5.5,0,0,1-.2-.04L-.2.46A.5.5,0,0,1-.46-.2.5.5,0,0,1,.2-.46l12.07,5.14a.5.5,0,0,1-.2.96Z" transform="translate(3820.84 474.53)" fill="#1f0e2f"/>
        </g>
        <g id="Group_23" data-name="Group 23">
          <path id="Line_15" data-name="Line 15" d="M0,12.56a.5.5,0,0,1-.2-.04.5.5,0,0,1-.264-.656L4.68-.2A.5.5,0,0,1,5.336-.46.5.5,0,0,1,5.6.2L.46,12.256A.5.5,0,0,1,0,12.56Z" transform="translate(3806.41 426.62)" fill="#1f0e2f"/>
          <path id="Line_16" data-name="Line 16" d="M0,12.57a.5.5,0,0,1-.2-.04.5.5,0,0,1-.264-.656L4.68-.2A.5.5,0,0,1,5.336-.46.5.5,0,0,1,5.6.2L.46,12.266A.5.5,0,0,1,0,12.57Z" transform="translate(3779.85 488.96)" fill="#1f0e2f"/>
        </g>
      </g>
      <g id="Group_27" data-name="Group 27">
        <g id="Group_25" data-name="Group 25">
          <path id="Line_17" data-name="Line 17" d="M4.9,12.66a.5.5,0,0,1-.464-.313L-.464.187A.5.5,0,0,1-.187-.464a.5.5,0,0,1,.651.277l4.9,12.16a.5.5,0,0,1-.464.687Z" transform="translate(3780.6 426.31)" fill="#1f0e2f"/>
          <path id="Line_18" data-name="Line 18" d="M4.9,12.67a.5.5,0,0,1-.464-.313L-.464.187A.5.5,0,0,1-.187-.464a.5.5,0,0,1,.651.277l4.9,12.17a.5.5,0,0,1-.464.687Z" transform="translate(3805.9 489.17)" fill="#1f0e2f"/>
        </g>
        <g id="Group_26" data-name="Group 26">
          <path id="Line_19" data-name="Line 19" d="M0,5.4a.5.5,0,0,1-.464-.313.5.5,0,0,1,.277-.651l12.17-4.9a.5.5,0,0,1,.651.277.5.5,0,0,1-.277.651L.187,5.364A.5.5,0,0,1,0,5.4Z" transform="translate(3821.05 448.72)" fill="#1f0e2f"/>
          <path id="Line_20" data-name="Line 20" d="M0,5.4a.5.5,0,0,1-.464-.313.5.5,0,0,1,.277-.651l12.17-4.9a.5.5,0,0,1,.651.277.5.5,0,0,1-.277.651L.187,5.364A.5.5,0,0,1,0,5.4Z" transform="translate(3758.19 474.02)" fill="#1f0e2f"/>
        </g>
      </g>
      <g id="Group_29" data-name="Group 29">
        <path id="Path_2" data-name="Path 2" d="M3795.71,429.24h0a.5.5,0,0,1,.465.317c3.054,7.757,4.2,21.423,4.621,29.181,6.949.474,22.02,3.883,25.027,4.575l.078.018a.5.5,0,0,1,.082.955c-7.86,3.09-17.948,4.22-25.187,4.62-.42,7.769-1.57,21.444-4.621,29.178a.5.5,0,0,1-.465.317h0a.5.5,0,0,1-.465-.317c-3.053-7.756-4.2-21.419-4.62-29.178-7.255-.4-17.356-1.531-25.188-4.62a.5.5,0,0,1,.073-.953c.75-.171,18.078-4.1,25.115-4.594.42-7.768,1.569-21.446,4.621-29.182A.5.5,0,0,1,3795.71,429.24Zm28.34,34.695c-5.03-1.132-17.888-3.921-23.756-4.225a.5.5,0,0,1-.473-.473c-.374-7.211-1.4-20.1-4.111-28.043-2.709,7.929-3.735,20.823-4.111,28.043a.5.5,0,0,1-.473.473c-5.461.283-19.025,3.19-23.746,4.231,7.623,2.66,17.01,3.641,23.746,3.991a.5.5,0,0,1,.473.473c.374,7.211,1.4,20.1,4.111,28.043,2.709-7.929,3.735-20.823,4.111-28.043a.5.5,0,0,1,.473-.473C3807.02,467.582,3816.4,466.6,3824.05,463.935Z" fill="#1f0e2f"/>
      </g>
    </g>
  </g>
</svg>
