<svg xmlns="http://www.w3.org/2000/svg" width="256" height="185.861" viewBox="0 0 256 185.861">
  <g id="Group_167" data-name="Group 167" transform="translate(-80.994 -273.339)">
    <g id="Group_137" data-name="Group 137" transform="translate(-4981.893 -138)">
      <g id="Group_56" data-name="Group 56" transform="translate(31 -7)">
        <line id="Line_45" data-name="Line 45" x2="203.306" transform="translate(5071.6 512.88)" fill="none" stroke="#fff" stroke-linecap="round" stroke-linejoin="round" stroke-miterlimit="10" stroke-width="0.5"/>
        <line id="Line_46" data-name="Line 46" x2="203.306" transform="translate(5071.6 542.57)" fill="none" stroke="#fff" stroke-linecap="round" stroke-linejoin="round" stroke-miterlimit="10" stroke-width="0.5"/>
        <line id="Line_47" data-name="Line 47" x2="203.306" transform="translate(5071.6 573.26)" fill="none" stroke="#fff" stroke-linecap="round" stroke-linejoin="round" stroke-miterlimit="10" stroke-width="0.5"/>
        <line id="Line_48" data-name="Line 48" x2="203.306" transform="translate(5071.6 603.95)" fill="none" stroke="#fff" stroke-linecap="round" stroke-linejoin="round" stroke-miterlimit="10" stroke-width="0.5"/>
        <g id="Group_55" data-name="Group 55" transform="translate(3.984 3)">
          <path id="Path_13" data-name="Path 13" d="M5051.292,492.548a6.429,6.429,0,0,1-4.971-5.133,11.107,11.107,0,0,0-.554-2.105h0a11.866,11.866,0,0,0-.553,2.113,6.435,6.435,0,0,1-4.995,5.14c-.629.138-1.06.23-1.06.23a11.664,11.664,0,0,0,1.383.438,6.418,6.418,0,0,1,4.7,5.086,11.311,11.311,0,0,0,.522,1.967h0a11.169,11.169,0,0,0,.522-1.967,6.439,6.439,0,0,1,4.7-5.086,11.1,11.1,0,0,0,1.383-.438C5052.375,492.786,5051.938,492.686,5051.292,492.548Z" transform="translate(0)" fill="none" stroke="#fff" stroke-linecap="round" stroke-linejoin="round" stroke-miterlimit="10" stroke-width="1.7"/>
          <path id="Path_14" data-name="Path 14" d="M5051.292,532.928a6.429,6.429,0,0,1-4.971-5.133,11.108,11.108,0,0,0-.554-2.105h0a11.865,11.865,0,0,0-.553,2.113,6.435,6.435,0,0,1-4.995,5.14c-.629.138-1.06.231-1.06.231a11.686,11.686,0,0,0,1.383.438,6.417,6.417,0,0,1,4.7,5.086,11.311,11.311,0,0,0,.522,1.967h0a11.168,11.168,0,0,0,.522-1.967,6.439,6.439,0,0,1,4.7-5.086,11.107,11.107,0,0,0,1.383-.438C5052.375,533.166,5051.938,533.066,5051.292,532.928Z" transform="translate(0 -9.354)" fill="none" stroke="#fff" stroke-linecap="round" stroke-linejoin="round" stroke-miterlimit="10" stroke-width="1.7"/>
          <path id="Path_15" data-name="Path 15" d="M5051.292,573.308a6.429,6.429,0,0,1-4.971-5.133,11.108,11.108,0,0,0-.554-2.105h0a11.866,11.866,0,0,0-.553,2.113,6.435,6.435,0,0,1-4.995,5.14c-.629.138-1.06.23-1.06.23a11.686,11.686,0,0,0,1.383.438,6.417,6.417,0,0,1,4.7,5.086,11.314,11.314,0,0,0,.522,1.967h0a11.171,11.171,0,0,0,.522-1.967,6.439,6.439,0,0,1,4.7-5.086,11.1,11.1,0,0,0,1.383-.438S5051.938,573.446,5051.292,573.308Z" transform="translate(0 -18.708)" fill="none" stroke="#fff" stroke-linecap="round" stroke-linejoin="round" stroke-miterlimit="10" stroke-width="1.7"/>
          <path id="Path_16" data-name="Path 16" d="M5051.292,613.7a6.429,6.429,0,0,1-4.971-5.133,11.107,11.107,0,0,0-.554-2.105h0a11.865,11.865,0,0,0-.553,2.113,6.434,6.434,0,0,1-4.995,5.14c-.629.138-1.06.231-1.06.231a11.686,11.686,0,0,0,1.383.438,6.418,6.418,0,0,1,4.7,5.086,11.311,11.311,0,0,0,.522,1.967h0a11.168,11.168,0,0,0,.522-1.967,6.439,6.439,0,0,1,4.7-5.086,11.107,11.107,0,0,0,1.383-.438C5052.375,613.936,5051.938,613.836,5051.292,613.7Z" transform="translate(0 -28.065)" fill="none" stroke="#fff" stroke-linecap="round" stroke-linejoin="round" stroke-miterlimit="10" stroke-width="1.7"/>
        </g>
        <g id="Group_54" data-name="Group 54">
          <text id="Illustration_Visual_Development_Storyboards_Branding_Web_Design_" data-name="Illustration
Visual Development
Storyboards
Branding | Web Design " transform="translate(5071.597 502.371)" fill="#fff" font-size="18" font-family="Lato-Medium, Lato" font-weight="500"><tspan x="0" y="0">Illustration</tspan><tspan x="0" y="30">Visual Development</tspan><tspan x="0" y="60">Storyboards</tspan><tspan x="0" y="90">Branding | Web Design </tspan></text>
        </g>
      </g>
    </g>
    <text id="SUN_PACKAGE" data-name="SUN PACKAGE" transform="translate(80.994 310.339)" fill="#fff" font-size="37" font-family="Lato-Heavy, Lato" font-weight="800"><tspan x="0" y="0">SUN PACKAGE</tspan></text>
  </g>
</svg>
