<svg xmlns="http://www.w3.org/2000/svg" width="28.503" height="18.74" viewBox="0 0 28.503 18.74">
  <g id="Group_132" data-name="Group 132" transform="translate(-167.88 -3.5)">
    <g id="Group_131" data-name="Group 131">
      <path id="Path_52" data-name="Path 52" d="M167.88,3.5h7.37a21.681,21.681,0,0,1,3.27.18,4.885,4.885,0,0,1,1.93.76,4.787,4.787,0,0,1,1.42,1.54,4.15,4.15,0,0,1,.57,2.16,4.275,4.275,0,0,1-.7,2.38,4.379,4.379,0,0,1-1.89,1.62,4.91,4.91,0,0,1,2.59,1.67,4.481,4.481,0,0,1,.91,2.78,5.52,5.52,0,0,1-.59,2.45,4.885,4.885,0,0,1-1.6,1.9,5.248,5.248,0,0,1-2.5.87c-.62.07-2.12.11-4.49.13h-6.28V3.5Zm3.73,3.07v4.27h2.44c1.45,0,2.35-.02,2.71-.06a2.485,2.485,0,0,0,1.5-.66,1.969,1.969,0,0,0,.55-1.44,2.051,2.051,0,0,0-.47-1.39,2.125,2.125,0,0,0-1.4-.65q-.555-.06-3.18-.06h-2.15Zm0,7.33v4.93h3.45a17.792,17.792,0,0,0,2.55-.11,2.32,2.32,0,0,0,1.35-.74,2.255,2.255,0,0,0,.52-1.57,2.413,2.413,0,0,0-.4-1.41,2.241,2.241,0,0,0-1.16-.84,12.55,12.55,0,0,0-3.3-.26Z" fill="#575757"/>
      <path id="Path_53" data-name="Path 53" d="M192.67,17.69l3.52.59a5.738,5.738,0,0,1-2.15,2.95,6.275,6.275,0,0,1-3.67,1.01,5.988,5.988,0,0,1-5.16-2.28,7.666,7.666,0,0,1-1.32-4.61,7.362,7.362,0,0,1,1.74-5.2,5.732,5.732,0,0,1,4.39-1.88,5.948,5.948,0,0,1,4.71,1.97q1.725,1.965,1.65,6.03h-8.86a3.6,3.6,0,0,0,.86,2.45,2.684,2.684,0,0,0,2.04.87,2.2,2.2,0,0,0,1.4-.45A2.684,2.684,0,0,0,192.67,17.69Zm.2-3.57a3.434,3.434,0,0,0-.79-2.33,2.554,2.554,0,0,0-3.75.04,3.273,3.273,0,0,0-.74,2.29Z" fill="#575757"/>
    </g>
    <rect id="Rectangle_24" data-name="Rectangle 24" width="7.31" height="2.42" transform="translate(186.49 4.74)" fill="#575757"/>
  </g>
</svg>
