<svg xmlns="http://www.w3.org/2000/svg" width="22.16" height="22.3" viewBox="0 0 22.16 22.3">
  <g id="Group_129" data-name="Group 129" transform="translate(-113.29 -0.7)">
    <path id="Path_50" data-name="Path 50" d="M113.29,2.99a2.116,2.116,0,0,1,.72-1.65A2.692,2.692,0,0,1,115.85.7a2.651,2.651,0,0,1,1.86.65,2.128,2.128,0,0,1,.71,1.63,2.151,2.151,0,0,1-.72,1.66,2.637,2.637,0,0,1-1.85.66,2.566,2.566,0,0,1-1.83-.67A2.086,2.086,0,0,1,113.29,2.99ZM113.61,23V7.87h4.4V23Z" fill="#fff"/>
    <path id="Path_51" data-name="Path 51" d="M135.45,23h-4.39V14.56c0-2.44-.88-3.67-2.64-3.67a2.629,2.629,0,0,0-2.09.98,3.682,3.682,0,0,0-.83,2.5V23h-4.42V7.87h4.42v2.41h.05a5.337,5.337,0,0,1,4.87-2.78c3.36,0,5.03,2.08,5.03,6.24Z" fill="#fff"/>
  </g>
</svg>
