<svg xmlns="http://www.w3.org/2000/svg" width="303" height="187.982" viewBox="0 0 303 187.982">
  <g id="Group_143" data-name="Group 143" transform="translate(32.641 64.909)">
    <g id="Group_54" data-name="Group 54" transform="translate(29.712 1)">
      <text id="_3D_Outfit_Mockups_Character_Outfit_Dev_Game_Assets_Animation" data-name="3D Outfit Mockups
Character Outfit Dev
Game Assets
Animation" transform="translate(0 20)" fill="#fff" font-size="18" font-family="Lato-Medium, Lato" font-weight="500"><tspan x="0" y="0">3D Outfit Mockups</tspan><tspan x="0" y="30">Character Outfit Dev</tspan><tspan x="0" y="60">Game Assets</tspan><tspan x="0" y="90">Animation</tspan></text>
    </g>
    <g id="Group_55" data-name="Group 55" transform="translate(0 4.114)">
      <path id="Path_13" data-name="Path 13" d="M5051.83,492.868a6.714,6.714,0,0,1-5.192-5.36,11.574,11.574,0,0,0-.578-2.2h0a12.459,12.459,0,0,0-.577,2.206,6.72,6.72,0,0,1-5.216,5.368c-.657.144-1.107.241-1.107.241a12.2,12.2,0,0,0,1.445.457,6.705,6.705,0,0,1,4.911,5.312,11.685,11.685,0,0,0,.544,2.054h0a11.658,11.658,0,0,0,.546-2.054,6.723,6.723,0,0,1,4.91-5.312,11.546,11.546,0,0,0,1.444-.457C5052.96,493.117,5052.5,493.013,5051.83,492.868Z" transform="translate(-5039.159 -485.31)" fill="none" stroke="#fff" stroke-linecap="round" stroke-linejoin="round" stroke-miterlimit="10" stroke-width="1.7"/>
      <path id="Path_14" data-name="Path 14" d="M5051.83,533.248a6.715,6.715,0,0,1-5.192-5.36,11.577,11.577,0,0,0-.578-2.2h0a12.461,12.461,0,0,0-.577,2.207,6.72,6.72,0,0,1-5.216,5.368c-.657.144-1.107.241-1.107.241a12.246,12.246,0,0,0,1.445.457,6.7,6.7,0,0,1,4.911,5.312,11.685,11.685,0,0,0,.544,2.054h0a11.659,11.659,0,0,0,.546-2.054,6.723,6.723,0,0,1,4.91-5.312,11.556,11.556,0,0,0,1.444-.457C5052.96,533.5,5052.5,533.393,5051.83,533.248Z" transform="translate(-5039.159 -494.291)" fill="none" stroke="#fff" stroke-linecap="round" stroke-linejoin="round" stroke-miterlimit="10" stroke-width="1.7"/>
      <path id="Path_15" data-name="Path 15" d="M5051.83,573.628a6.715,6.715,0,0,1-5.192-5.36,11.576,11.576,0,0,0-.578-2.2h0a12.461,12.461,0,0,0-.577,2.207,6.72,6.72,0,0,1-5.216,5.368c-.657.144-1.107.241-1.107.241a12.258,12.258,0,0,0,1.445.457,6.7,6.7,0,0,1,4.911,5.312,11.691,11.691,0,0,0,.544,2.054h0a11.666,11.666,0,0,0,.546-2.054,6.723,6.723,0,0,1,4.91-5.312,11.566,11.566,0,0,0,1.444-.457S5052.5,573.773,5051.83,573.628Z" transform="translate(-5039.159 -504.272)" fill="none" stroke="#fff" stroke-linecap="round" stroke-linejoin="round" stroke-miterlimit="10" stroke-width="1.7"/>
      <path id="Path_70" data-name="Path 70" d="M5051.83,573.628a6.715,6.715,0,0,1-5.192-5.36,11.576,11.576,0,0,0-.578-2.2h0a12.461,12.461,0,0,0-.577,2.207,6.72,6.72,0,0,1-5.216,5.368c-.657.144-1.107.241-1.107.241a12.258,12.258,0,0,0,1.445.457,6.7,6.7,0,0,1,4.911,5.312,11.691,11.691,0,0,0,.544,2.054h0a11.666,11.666,0,0,0,.546-2.054,6.723,6.723,0,0,1,4.91-5.312,11.566,11.566,0,0,0,1.444-.457S5052.5,573.773,5051.83,573.628Z" transform="translate(-5039.159 -474.272)" fill="none" stroke="#fff" stroke-linecap="round" stroke-linejoin="round" stroke-miterlimit="10" stroke-width="1.7"/>
    </g>
    <g id="Group_56" data-name="Group 56" transform="translate(29.715 28.771)">
      <line id="Line_45" data-name="Line 45" x2="212.303" transform="translate(0 0)" fill="none" stroke="#fff" stroke-linecap="round" stroke-linejoin="round" stroke-miterlimit="10" stroke-width="0.5"/>
      <line id="Line_46" data-name="Line 46" x2="212.303" transform="translate(0 31.004)" fill="none" stroke="#fff" stroke-linecap="round" stroke-linejoin="round" stroke-miterlimit="10" stroke-width="0.5"/>
      <line id="Line_47" data-name="Line 47" x2="212.303" transform="translate(0 63.052)" fill="none" stroke="#fff" stroke-linecap="round" stroke-linejoin="round" stroke-miterlimit="10" stroke-width="0.5"/>
      <line id="Line_143" data-name="Line 143" x2="212.303" transform="translate(0 94.052)" fill="none" stroke="#fff" stroke-linecap="round" stroke-linejoin="round" stroke-miterlimit="10" stroke-width="0.5"/>
    </g>
    <text id="MOON_PACKAGE" data-name="MOON PACKAGE" transform="translate(-32.641 -27.909)" fill="#fff" font-size="37" font-family="Lato-Heavy, Lato" font-weight="800"><tspan x="0" y="0">MOON PACKAGE</tspan></text>
  </g>
</svg>
