<svg xmlns="http://www.w3.org/2000/svg" width="112.983" height="52.28" viewBox="0 0 112.983 52.28">
  <g id="star2" transform="translate(-348 3794.66) rotate(-90)">
    <line id="Line_1" data-name="Line 1" y2="34.829" transform="translate(3768.345 348)" fill="none" stroke="#20152b" stroke-miterlimit="10" stroke-width="1"/>
    <line id="Line_2" data-name="Line 2" y2="34.829" transform="translate(3768.345 426.154)" fill="none" stroke="#20152b" stroke-miterlimit="10" stroke-width="1"/>
    <g id="Group_29" data-name="Group 29" transform="translate(3742.88 386.014)">
      <path id="Path_2" data-name="Path 2" d="M3782.464,444.046c-.185-3.553-.728-10.471-2.238-14.306h0c-1.515,3.84-2.053,10.757-2.238,14.306-3.277.17-12.369,2.238-12.369,2.238a42.062,42.062,0,0,0,12.369,2.238c.047.913.118,2.049.25,3.609a47.346,47.346,0,0,0,1.831,10.28c-.02-.049.066.189.156.417h0c1.515-3.84,2.238-14.306,2.238-14.306s8.778-.878,12.618-2.388C3795.078,446.133,3786.018,444.23,3782.464,444.046Z" transform="translate(-3754.581 -428.075)" fill="none" stroke="#1f0e2f" stroke-linecap="round" stroke-linejoin="round" stroke-miterlimit="10" stroke-width="1"/>
      <g id="Group_28" data-name="Group 28" transform="translate(0 0)">
        <g id="Group_18" data-name="Group 18" transform="translate(0 18.208)">
          <g id="Group_17" data-name="Group 17">
            <line id="Line_3" data-name="Line 3" x2="8.315" fill="none" stroke="#1f0e2f" stroke-linecap="round" stroke-linejoin="round" stroke-miterlimit="10" stroke-width="1"/>
            <line id="Line_4" data-name="Line 4" x2="8.315" transform="translate(42.965)" fill="none" stroke="#1f0e2f" stroke-linecap="round" stroke-linejoin="round" stroke-miterlimit="10" stroke-width="1"/>
          </g>
        </g>
        <g id="Group_21" data-name="Group 21" transform="translate(8.684 1.252)">
          <g id="Group_19" data-name="Group 19">
            <line id="Line_5" data-name="Line 5" x2="4.296" y2="4.296" transform="translate(3.281 3.281)" fill="none" stroke="#1f0e2f" stroke-linecap="round" stroke-linejoin="round" stroke-miterlimit="10" stroke-width="1"/>
            <line id="Line_6" data-name="Line 6" x2="1.903" y2="1.898" fill="none" stroke="#1f0e2f" stroke-linecap="round" stroke-linejoin="round" stroke-miterlimit="10" stroke-width="1"/>
            <line id="Line_7" data-name="Line 7" x1="4.296" y1="4.296" transform="translate(26.364 26.364)" fill="none" stroke="#1f0e2f" stroke-linecap="round" stroke-linejoin="round" stroke-miterlimit="10" stroke-width="1"/>
            <line id="Line_8" data-name="Line 8" x1="1.903" y1="1.903" transform="translate(32.038 32.038)" fill="none" stroke="#1f0e2f" stroke-linecap="round" stroke-linejoin="round" stroke-miterlimit="10" stroke-width="1"/>
          </g>
          <g id="Group_20" data-name="Group 20" transform="translate(3.078 26.334)">
            <line id="Line_9" data-name="Line 9" x1="4.5" y2="4.505" fill="none" stroke="#1f0e2f" stroke-linecap="round" stroke-linejoin="round" stroke-miterlimit="10" stroke-width="1"/>
          </g>
          <line id="Line_10" data-name="Line 10" x1="4.296" y2="4.296" transform="translate(26.364 3.281)" fill="none" stroke="#1f0e2f" stroke-linecap="round" stroke-linejoin="round" stroke-miterlimit="10" stroke-width="1"/>
          <line id="Line_11" data-name="Line 11" x1="1.903" y2="1.898" transform="translate(32.038)" fill="none" stroke="#1f0e2f" stroke-linecap="round" stroke-linejoin="round" stroke-miterlimit="10" stroke-width="1"/>
          <line id="Line_12" data-name="Line 12" y1="1.903" x2="1.903" transform="translate(0 32.038)" fill="none" stroke="#1f0e2f" stroke-linecap="round" stroke-linejoin="round" stroke-miterlimit="10" stroke-width="1"/>
        </g>
        <g id="Group_24" data-name="Group 24" transform="translate(7.582 0.15)">
          <g id="Group_22" data-name="Group 22" transform="translate(0 10.364)">
            <line id="Line_13" data-name="Line 13" x2="5.859" y2="2.495" fill="none" stroke="#1f0e2f" stroke-linecap="round" stroke-linejoin="round" stroke-miterlimit="10" stroke-width="1"/>
            <line id="Line_14" data-name="Line 14" x2="5.859" y2="2.495" transform="translate(30.262 12.893)" fill="none" stroke="#1f0e2f" stroke-linecap="round" stroke-linejoin="round" stroke-miterlimit="10" stroke-width="1"/>
          </g>
          <g id="Group_23" data-name="Group 23" transform="translate(10.364)">
            <line id="Line_15" data-name="Line 15" x1="2.495" y2="5.854" transform="translate(12.893)" fill="none" stroke="#1f0e2f" stroke-linecap="round" stroke-linejoin="round" stroke-miterlimit="10" stroke-width="1"/>
            <line id="Line_16" data-name="Line 16" x1="2.495" y2="5.859" transform="translate(0 30.261)" fill="none" stroke="#1f0e2f" stroke-linecap="round" stroke-linejoin="round" stroke-miterlimit="10" stroke-width="1"/>
          </g>
        </g>
        <g id="Group_27" data-name="Group 27" transform="translate(7.432)">
          <g id="Group_25" data-name="Group 25" transform="translate(10.878)">
            <line id="Line_17" data-name="Line 17" x2="2.379" y2="5.903" fill="none" stroke="#1f0e2f" stroke-linecap="round" stroke-linejoin="round" stroke-miterlimit="10" stroke-width="1"/>
            <line id="Line_18" data-name="Line 18" x2="2.379" y2="5.908" transform="translate(12.281 30.514)" fill="none" stroke="#1f0e2f" stroke-linecap="round" stroke-linejoin="round" stroke-miterlimit="10" stroke-width="1"/>
          </g>
          <g id="Group_26" data-name="Group 26" transform="translate(0 10.878)">
            <line id="Line_19" data-name="Line 19" x1="5.908" y2="2.379" transform="translate(30.514)" fill="none" stroke="#1f0e2f" stroke-linecap="round" stroke-linejoin="round" stroke-miterlimit="10" stroke-width="1"/>
            <line id="Line_20" data-name="Line 20" x1="5.908" y2="2.379" transform="translate(0 12.281)" fill="none" stroke="#1f0e2f" stroke-linecap="round" stroke-linejoin="round" stroke-miterlimit="10" stroke-width="1"/>
          </g>
        </g>
      </g>
    </g>
  </g>
</svg>
